<?xml version="1.0" standalone="no"?>
<!DOCTYPE svg PUBLIC "-//W3C//DTD SVG 20010904//EN"
 "http://www.w3.org/TR/2001/REC-SVG-20010904/DTD/svg10.dtd">
<svg version="1.0" xmlns="http://www.w3.org/2000/svg"
 width="1052.000000pt" height="1052.000000pt" viewBox="0 0 1052.000000 1052.000000"
 preserveAspectRatio="xMidYMid meet">
<metadata>
Created by potrace 1.14, written by Peter Selinger 2001-2017
</metadata>
<g transform="translate(0.000000,1052.000000) scale(0.100000,-0.100000)"
fill="#000000" stroke="none">
<path d="M5210 9510 c0 -6 -7 -10 -15 -10 -8 0 -15 -5 -15 -11 0 -5 -4 -8 -10
-4 -5 3 -18 -3 -29 -14 -11 -11 -22 -17 -25 -13 -3 3 -6 0 -6 -7 0 -7 -4 -10
-9 -6 -5 3 -16 -2 -24 -10 -9 -8 -20 -15 -26 -15 -6 0 -11 -5 -11 -12 0 -6 -3
-8 -6 -5 -4 4 -19 -1 -33 -11 -14 -10 -38 -24 -53 -32 -16 -7 -28 -17 -28 -22
0 -5 -5 -6 -10 -3 -6 3 -13 -1 -16 -9 -3 -9 -10 -14 -14 -11 -5 3 -15 -1 -23
-9 -8 -8 -17 -12 -21 -9 -3 4 -6 1 -6 -6 0 -7 -4 -10 -9 -7 -5 3 -14 -1 -21
-9 -7 -8 -19 -15 -26 -15 -8 0 -14 -5 -14 -11 0 -5 -4 -7 -10 -4 -5 3 -10 2
-10 -2 0 -5 -18 -17 -40 -27 -22 -10 -40 -21 -40 -26 0 -5 -7 -7 -15 -4 -8 3
-17 0 -20 -8 -3 -8 -21 -21 -40 -28 -19 -8 -35 -17 -35 -22 0 -4 -6 -8 -14 -8
-8 0 -22 -7 -30 -16 -9 -8 -16 -12 -16 -8 0 4 -8 1 -17 -7 -10 -8 -30 -21 -45
-29 -16 -7 -28 -17 -28 -22 0 -5 -4 -6 -10 -3 -5 3 -10 1 -10 -5 0 -6 -4 -9
-9 -6 -5 3 -14 -1 -21 -9 -7 -8 -18 -15 -26 -15 -7 0 -19 -6 -26 -12 -15 -14
-31 -24 -106 -63 -29 -15 -52 -31 -52 -36 0 -5 -3 -8 -7 -7 -13 4 -113 -54
-113 -65 0 -6 -3 -7 -6 -4 -8 8 -64 -24 -64 -36 0 -4 -4 -6 -8 -3 -5 3 -25 -6
-45 -19 -20 -14 -41 -25 -46 -25 -6 0 -11 -3 -11 -8 0 -4 -19 -15 -41 -25 -23
-10 -57 -30 -75 -44 -19 -14 -34 -21 -34 -17 0 5 -7 0 -15 -10 -8 -11 -15 -16
-15 -11 0 4 -8 2 -17 -7 -10 -8 -39 -25 -65 -39 -27 -13 -48 -28 -48 -32 0 -5
-4 -6 -9 -3 -5 3 -14 -1 -21 -9 -7 -8 -18 -15 -24 -15 -7 0 -22 -9 -34 -20
-12 -11 -25 -21 -29 -21 -17 -1 -73 -32 -73 -40 0 -5 -3 -8 -7 -7 -13 3 -63
-25 -63 -34 0 -5 -4 -7 -8 -4 -5 3 -18 -3 -29 -14 -12 -10 -24 -16 -27 -13 -3
4 -6 1 -6 -6 0 -7 -4 -10 -8 -7 -5 3 -19 -4 -30 -15 -12 -11 -22 -17 -22 -14
0 3 -17 -5 -37 -18 -21 -12 -50 -29 -65 -36 -16 -8 -28 -18 -28 -23 0 -5 -4
-7 -9 -4 -5 3 -14 -1 -21 -9 -7 -8 -19 -15 -26 -15 -8 0 -14 -5 -14 -12 0 -6
-3 -8 -6 -5 -4 3 -18 -3 -32 -13 -13 -11 -31 -20 -38 -20 -8 0 -14 -4 -14 -10
0 -5 -7 -10 -15 -10 -8 0 -15 -5 -15 -12 0 -6 -3 -8 -6 -5 -4 4 -20 -3 -36
-14 -16 -12 -36 -22 -44 -23 -9 -1 -19 -7 -22 -13 -4 -6 -17 -13 -29 -17 -13
-4 -23 -12 -23 -17 0 -6 -5 -7 -10 -4 -6 3 -13 -1 -16 -9 -3 -9 -10 -13 -15
-11 -4 3 -17 -2 -27 -12 -10 -10 -25 -19 -33 -21 -8 -2 -16 -8 -17 -13 -2 -5
-8 -7 -13 -3 -5 3 -9 0 -9 -6 0 -6 -4 -8 -10 -5 -5 3 -10 3 -10 -2 0 -4 -18
-17 -40 -27 -22 -11 -40 -23 -40 -28 0 -5 -4 -7 -9 -4 -5 3 -14 -1 -21 -9 -7
-8 -16 -12 -21 -9 -5 3 -12 -2 -15 -10 -3 -9 -10 -13 -15 -10 -5 3 -9 0 -9 -6
0 -6 -4 -8 -10 -5 -6 3 -10 3 -10 -2 0 -4 -23 -19 -50 -32 -28 -14 -50 -29
-50 -33 0 -4 -6 -8 -14 -8 -7 0 -19 -7 -26 -15 -7 -8 -16 -13 -20 -10 -4 2
-22 -7 -40 -20 -19 -14 -38 -25 -43 -25 -4 0 -29 -15 -55 -32 -26 -18 -50 -32
-54 -30 -5 1 -8 -2 -8 -8 0 -5 -6 -7 -14 -4 -8 3 -19 -3 -26 -16 -6 -11 -15
-18 -20 -15 -4 3 -16 -2 -24 -11 -9 -8 -16 -12 -16 -7 0 4 -4 2 -9 -6 -5 -8
-17 -16 -27 -17 -9 -2 -20 -6 -23 -11 -6 -8 -27 -21 -98 -58 -23 -13 -39 -26
-35 -29 3 -4 -1 -4 -10 -1 -9 4 -18 0 -22 -10 -3 -9 -10 -14 -14 -11 -5 3 -18
-3 -29 -14 -12 -10 -23 -17 -25 -15 -2 2 -4 -950 -4 -2116 0 -1899 2 -2119 16
-2124 8 -3 19 -4 23 -2 5 1 13 -6 18 -16 6 -9 14 -15 20 -12 5 4 9 2 9 -3 0
-8 50 -36 59 -32 2 1 7 -2 10 -7 8 -12 81 -56 81 -49 0 3 9 -2 20 -12 12 -9
22 -15 24 -12 1 3 10 -3 20 -13 10 -9 22 -14 28 -11 6 4 8 2 4 -4 -3 -6 4 -14
16 -18 13 -4 23 -5 23 -3 0 2 10 -6 23 -16 12 -11 24 -18 25 -15 1 2 11 -4 22
-13 11 -9 23 -16 26 -15 3 2 13 -5 23 -15 10 -9 23 -14 29 -10 7 3 9 2 4 -2
-9 -11 72 -57 86 -48 5 3 7 2 4 -3 -3 -6 3 -16 15 -23 16 -10 19 -10 13 1 -3
7 -1 6 7 -3 14 -17 131 -85 137 -80 2 1 7 -1 10 -6 11 -16 109 -72 115 -66 3
4 6 1 6 -6 0 -7 5 -9 10 -6 5 3 10 2 10 -4 0 -10 39 -27 53 -23 5 1 6 -2 3 -7
-6 -9 31 -27 47 -23 5 1 6 -2 2 -8 -3 -5 -2 -10 2 -10 5 0 50 -24 99 -53 49
-29 96 -51 103 -49 8 3 11 0 7 -7 -4 -6 -2 -11 4 -11 7 0 23 -9 37 -20 14 -11
29 -17 34 -14 5 3 9 1 9 -5 0 -6 13 -17 30 -26 17 -9 30 -13 30 -10 0 3 10 -3
22 -15 20 -19 32 -23 43 -17 2 1 10 -6 17 -15 7 -9 20 -18 28 -20 8 -2 21 -10
28 -18 12 -13 13 -13 6 0 -4 8 3 5 15 -7 20 -21 34 -27 54 -24 4 0 7 -3 7 -9
0 -9 54 -41 66 -39 4 0 10 -3 13 -8 13 -19 62 -43 74 -37 7 4 9 4 5 -1 -11
-12 29 -38 45 -29 6 4 9 3 4 -1 -7 -8 87 -67 110 -68 7 0 10 -4 8 -8 -5 -7 55
-35 68 -31 5 1 6 -1 3 -6 -4 -7 36 -32 69 -42 6 -2 16 -10 23 -17 8 -7 18 -10
24 -7 6 4 8 2 4 -4 -5 -9 22 -25 47 -27 4 0 11 -5 15 -11 9 -15 68 -44 76 -39
3 3 4 2 1 -2 -8 -10 55 -44 67 -37 7 4 8 2 4 -4 -4 -7 3 -14 19 -18 14 -3 25
-11 25 -16 0 -6 7 -7 16 -4 8 3 12 2 9 -4 -3 -6 -1 -11 4 -11 6 -1 16 -2 21
-3 6 0 15 -8 20 -16 5 -8 10 -11 10 -7 0 4 10 -2 22 -13 12 -11 28 -18 36 -15
7 2 11 1 8 -4 -3 -5 6 -14 22 -20 15 -6 52 -27 82 -46 30 -19 56 -32 59 -30 2
3 9 -1 15 -9 6 -7 36 -26 66 -42 30 -16 57 -32 58 -36 2 -5 12 -8 23 -8 10 0
19 -4 19 -9 0 -11 40 -26 55 -22 5 1 7 -1 2 -5 -9 -9 43 -45 55 -38 4 3 8 1 8
-5 0 -10 39 -27 53 -23 5 1 6 -2 3 -7 -6 -9 31 -27 47 -23 5 1 6 -2 3 -7 -5
-7 34 -29 61 -35 4 0 18 -11 32 -24 14 -13 31 -20 40 -17 8 3 12 3 8 -1 -10
-10 52 -46 65 -38 7 4 8 2 4 -4 -4 -7 -2 -12 4 -12 7 0 23 -9 37 -20 14 -11
29 -17 34 -14 5 3 9 1 9 -4 0 -5 12 -15 28 -22 15 -8 34 -20 42 -26 8 -7 22
-14 30 -16 8 -2 17 -6 20 -9 15 -17 98 -58 105 -51 4 4 6 2 2 -3 -3 -6 8 -18
24 -27 25 -14 31 -15 43 -3 7 8 16 11 20 8 3 -4 6 -1 6 5 0 6 16 16 35 23 19
7 35 16 35 20 0 3 29 21 65 40 36 18 65 37 65 41 0 4 9 8 20 8 11 0 20 5 20
11 0 5 4 8 9 5 5 -4 11 -2 13 3 1 5 10 11 18 13 8 2 23 12 33 22 9 11 20 17
23 13 3 -3 15 3 27 13 11 11 23 17 27 15 5 -3 11 2 14 11 3 8 10 13 15 10 5
-3 14 1 21 9 7 8 16 12 21 9 5 -3 9 -1 9 4 0 5 14 15 30 22 17 7 30 17 30 22
0 5 4 7 8 4 5 -3 18 2 28 12 11 9 26 18 34 20 8 2 17 8 18 13 2 5 8 7 13 3 5
-3 9 0 9 6 0 6 4 9 9 6 5 -3 12 1 15 10 3 8 10 13 14 10 5 -3 18 3 29 14 12
10 24 16 27 13 3 -4 6 -1 6 6 0 7 4 10 10 6 5 -3 18 3 29 14 11 11 22 17 25
13 3 -3 6 0 6 7 0 7 4 10 8 7 5 -3 19 4 31 15 12 11 25 17 31 14 5 -3 14 4 20
15 6 11 15 18 19 15 5 -2 14 2 21 10 7 8 16 12 21 9 5 -3 9 0 9 5 0 6 7 11 15
11 8 0 15 5 15 11 0 5 5 7 10 4 6 -3 10 -1 10 5 0 6 4 9 9 6 5 -3 12 1 15 9 3
8 9 14 13 13 13 -3 63 24 63 34 0 5 4 7 8 4 5 -3 19 4 30 15 12 11 22 17 22
13 0 -4 8 0 18 9 10 10 22 14 25 11 4 -4 9 1 13 10 3 9 10 13 15 10 5 -3 9 0
9 6 0 6 4 9 10 5 5 -3 18 3 29 14 11 11 22 17 25 13 3 -3 6 0 6 7 0 7 5 9 10
6 6 -3 10 -3 10 2 0 4 15 15 33 23 17 7 41 22 51 32 10 9 23 15 28 12 4 -3 8
0 8 7 0 7 3 10 6 6 3 -3 15 3 27 14 11 10 29 19 39 19 11 0 17 4 14 9 -5 7 36
25 40 18 1 -1 10 5 20 13 11 9 31 22 47 30 15 7 27 17 27 22 0 4 9 8 20 8 11
0 20 3 20 8 0 4 9 13 21 20 17 11 20 11 14 0 -3 -7 0 -5 8 4 8 10 17 15 20 11
4 -3 9 2 13 11 3 9 15 16 25 16 10 0 19 5 19 11 0 5 5 7 10 4 6 -3 10 -1 10 4
0 6 5 11 12 11 6 0 26 11 43 25 18 13 35 21 39 18 3 -4 6 -1 6 6 0 7 4 10 8 7
5 -3 19 4 30 15 12 11 22 17 22 14 0 -4 13 3 29 14 16 12 34 21 40 21 6 0 11
3 11 8 0 4 15 14 33 21 17 8 38 21 45 28 7 7 20 13 28 13 8 0 14 5 14 12 0 6
3 8 7 5 3 -4 12 1 20 11 10 11 12 12 8 2 -4 -10 -2 -9 8 2 8 10 17 15 20 11 4
-3 7 -1 7 6 0 7 5 9 10 6 6 -3 10 -2 10 2 0 5 9 14 21 21 17 11 20 11 14 0 -3
-7 0 -5 8 4 8 10 17 15 20 11 4 -3 9 2 13 11 3 9 15 16 25 16 10 0 19 5 19 10
0 6 7 10 15 10 8 0 15 5 15 11 0 5 4 8 8 5 5 -3 19 4 31 15 12 11 30 21 41 22
10 1 16 5 14 9 -3 4 2 8 10 8 9 0 16 4 16 10 0 5 7 7 15 4 8 -4 17 1 21 10 3
9 10 16 16 16 5 0 29 13 52 30 24 16 46 26 50 23 3 -4 6 -1 6 6 0 7 5 9 10 6
6 -3 10 -1 10 5 0 6 5 8 10 5 6 -3 10 -1 10 4 0 6 7 11 15 11 8 0 15 5 15 12
0 6 3 8 7 5 3 -4 12 1 20 11 10 11 12 12 8 2 -4 -8 2 -4 13 9 10 13 24 21 30
17 5 -3 12 1 16 9 3 8 14 15 25 15 10 0 22 7 25 16 4 9 9 14 13 11 3 -4 18 2
33 13 15 11 30 17 33 13 4 -3 9 2 13 11 3 9 9 14 14 11 4 -2 16 4 27 15 12 10
24 16 27 13 3 -4 6 -1 6 6 0 7 5 9 10 6 6 -3 10 -1 10 4 0 6 7 11 15 11 8 0
15 5 15 11 0 6 6 9 14 6 7 -3 21 4 30 14 9 11 21 17 26 14 6 -3 10 -2 10 3 0
5 20 19 45 32 25 13 45 27 45 32 0 5 5 6 10 3 6 -3 10 -1 10 6 0 7 3 9 7 6 3
-4 21 5 40 19 18 14 38 22 43 19 6 -3 10 -2 10 3 0 5 12 17 26 27 15 10 23 12
19 4 -5 -7 7 -1 27 14 19 15 40 27 46 27 7 0 12 5 12 10 0 6 6 10 13 10 9 0
12 431 12 2122 0 2117 0 2123 -20 2132 -11 5 -23 8 -27 8 -5 -1 -8 3 -8 8 0 6
-5 10 -11 10 -6 0 -23 9 -38 19 -15 11 -34 21 -41 23 -7 2 -22 10 -32 17 -23
19 -103 66 -150 88 -21 10 -38 21 -38 25 0 5 -5 8 -12 8 -6 0 -20 8 -31 18
-15 12 -19 13 -13 2 4 -8 0 -6 -8 4 -9 11 -16 16 -16 11 0 -5 -6 -1 -13 10 -8
10 -18 15 -24 12 -5 -3 -17 3 -26 14 -10 11 -22 17 -27 14 -6 -3 -10 -1 -10 5
0 7 -7 10 -15 6 -8 -3 -15 -2 -15 2 0 4 -13 16 -28 27 -27 19 -27 19 -12 0 11
-16 9 -15 -11 3 -14 12 -29 19 -32 15 -4 -3 -7 -1 -7 6 0 8 -7 11 -15 7 -8 -3
-15 -2 -15 3 0 9 -72 47 -79 42 -2 -2 -7 1 -10 6 -3 5 -26 20 -51 34 -25 13
-48 29 -52 34 -4 6 -8 6 -8 2 0 -4 -6 -3 -12 3 -37 31 -186 120 -202 120 -11
0 -17 3 -13 6 3 4 -10 15 -31 26 -20 11 -49 27 -64 35 -15 8 -30 19 -33 24 -4
5 -10 7 -15 4 -4 -3 -10 1 -13 9 -3 8 -19 17 -36 21 -17 4 -31 10 -31 13 0 4
-9 13 -21 20 -17 11 -20 11 -14 0 5 -7 -1 -4 -12 7 -33 32 -63 55 -72 55 -5 0
-39 18 -75 40 -36 22 -70 40 -76 40 -5 0 -10 5 -10 12 0 6 -3 9 -6 5 -3 -3
-11 -2 -18 4 -29 25 -87 58 -80 47 4 -7 -5 -2 -19 11 -15 14 -27 21 -27 17 0
-4 -7 0 -16 8 -8 9 -22 16 -30 16 -8 0 -14 4 -14 8 0 8 -49 40 -63 41 -4 0
-17 10 -29 20 -11 11 -25 18 -30 15 -4 -3 -8 -1 -8 4 0 5 -17 18 -37 27 -21
10 -49 26 -63 35 -14 10 -56 34 -95 55 -38 20 -81 46 -94 56 -13 11 -28 19
-33 19 -6 0 -23 9 -39 21 -16 11 -29 18 -29 14 0 -3 -10 3 -22 14 -11 11 -25
18 -30 15 -4 -3 -8 0 -8 5 0 6 -6 11 -13 11 -8 0 -24 9 -37 20 -13 11 -27 20
-32 20 -6 0 -22 8 -36 19 -23 15 -64 39 -167 95 -11 6 -22 14 -25 17 -3 3 -20
12 -37 20 -18 8 -33 17 -33 21 0 5 -5 8 -11 8 -6 0 -22 9 -36 20 -14 11 -29
17 -34 14 -5 -3 -9 -1 -9 4 0 7 -44 34 -60 36 -3 1 -20 11 -37 24 -18 13 -33
21 -33 17 0 -3 -10 3 -22 14 -11 11 -25 18 -30 15 -4 -3 -8 -1 -8 4 0 5 -8 13
-17 16 -21 8 -70 35 -107 60 -14 9 -26 13 -26 9 0 -5 -4 -3 -8 2 -9 13 -88 64
-104 67 -7 2 -21 11 -32 21 -11 9 -27 17 -37 17 -9 0 -20 7 -23 16 -4 9 -9 14
-12 11 -4 -3 -13 1 -21 9 -8 8 -19 12 -24 9 -5 -4 -9 -3 -9 2 0 4 -12 17 -27
27 -14 11 -23 14 -19 8 14 -22 0 -14 -61 38 -7 6 -13 8 -13 4 0 -3 -7 0 -16 7
-20 16 -54 22 -54 9z"/>
</g>
</svg>
